<svg width="120" height="38" viewBox="0 0 120 38" fill="none" xmlns="http://www.w3.org/2000/svg">
<path d="M26.6252 17.9985L15.9941 31.0829L5.36298 17.9985L15.9941 24.2444L26.6252 17.9985Z" fill="white"/>
<path d="M5.36298 2.91702V15.5096L15.9941 21.5274L26.6252 15.5096V2.91702H5.36298ZM12.1185 14.2681H6.98075V5.92739H12.1185V14.2681ZM18.563 14.2681H13.4252V5.92739H18.56V14.2681H18.563ZM25.0074 14.2681H19.8696V5.92739H25.0074V14.2681Z" fill="white"/>
<path d="M16.1541 2.91702V5.92739H18.56V14.2681H16.1541V21.4385L26.6252 15.5096V2.91702H16.1541ZM25.0074 14.2681H19.8696V5.92739H25.0074V14.2681Z" fill="white"/>
<path d="M15.9941 24.2533V31.083L26.637 17.9955L15.9941 24.2533Z" fill="white"/>
<path d="M47.944 18.24C46.424 18.24 45.12 18.016 44.032 17.568C42.944 17.12 42.12 16.536 41.56 15.816C41.016 15.08 40.728 14.28 40.696 13.416C40.696 13.288 40.744 13.176 40.84 13.08C40.952 12.968 41.08 12.912 41.224 12.912H44.248C44.44 12.912 44.592 12.952 44.704 13.032C44.832 13.096 44.96 13.2 45.088 13.344C45.296 13.76 45.632 14.104 46.096 14.376C46.56 14.648 47.176 14.784 47.944 14.784C48.856 14.784 49.552 14.64 50.032 14.352C50.512 14.064 50.752 13.672 50.752 13.176C50.752 12.824 50.624 12.536 50.368 12.312C50.128 12.088 49.744 11.888 49.216 11.712C48.688 11.536 47.904 11.336 46.864 11.112C44.944 10.712 43.504 10.128 42.544 9.36C41.6 8.576 41.128 7.464 41.128 6.024C41.128 5.048 41.4 4.176 41.944 3.408C42.488 2.64 43.264 2.04 44.272 1.608C45.28 1.176 46.456 0.959999 47.8 0.959999C49.192 0.959999 50.4 1.2 51.424 1.68C52.448 2.16 53.224 2.768 53.752 3.504C54.296 4.224 54.584 4.936 54.616 5.64C54.616 5.784 54.568 5.904 54.472 6C54.376 6.096 54.256 6.144 54.112 6.144H50.944C50.752 6.144 50.592 6.112 50.464 6.048C50.352 5.984 50.248 5.88 50.152 5.736C50.056 5.368 49.792 5.056 49.36 4.8C48.944 4.544 48.424 4.416 47.8 4.416C47.08 4.416 46.528 4.544 46.144 4.8C45.76 5.056 45.568 5.432 45.568 5.928C45.568 6.264 45.672 6.544 45.88 6.768C46.104 6.992 46.456 7.2 46.936 7.392C47.432 7.568 48.136 7.752 49.048 7.944C50.536 8.216 51.72 8.56 52.6 8.976C53.496 9.376 54.152 9.904 54.568 10.56C54.984 11.2 55.192 12.008 55.192 12.984C55.192 14.056 54.88 14.992 54.256 15.792C53.648 16.576 52.792 17.184 51.688 17.616C50.6 18.032 49.352 18.24 47.944 18.24ZM57.9301 18C57.7701 18 57.6261 17.944 57.4981 17.832C57.3861 17.704 57.3301 17.56 57.3301 17.4V1.56C57.3301 1.384 57.3861 1.24 57.4981 1.128C57.6261 1.016 57.7701 0.959999 57.9301 0.959999H60.7621C60.9381 0.959999 61.0821 1.016 61.1941 1.128C61.3061 1.24 61.3621 1.384 61.3621 1.56V17.4C61.3621 17.576 61.3061 17.72 61.1941 17.832C61.0821 17.944 60.9381 18 60.7621 18H57.9301ZM70.1013 18.24C68.1173 18.24 66.5893 17.768 65.5173 16.824C64.4453 15.88 63.8613 14.552 63.7653 12.84C63.7493 12.632 63.7413 12.272 63.7413 11.76C63.7413 11.248 63.7493 10.888 63.7653 10.68C63.8613 8.984 64.4613 7.664 65.5653 6.72C66.6693 5.76 68.1813 5.28 70.1013 5.28C72.0373 5.28 73.5573 5.76 74.6613 6.72C75.7653 7.664 76.3653 8.984 76.4613 10.68C76.4773 10.888 76.4853 11.248 76.4853 11.76C76.4853 12.272 76.4773 12.632 76.4613 12.84C76.3653 14.552 75.7813 15.88 74.7093 16.824C73.6373 17.768 72.1013 18.24 70.1013 18.24ZM70.1013 15.312C70.8053 15.312 71.3253 15.104 71.6613 14.688C71.9973 14.256 72.1893 13.6 72.2373 12.72C72.2533 12.56 72.2613 12.24 72.2613 11.76C72.2613 11.28 72.2533 10.96 72.2373 10.8C72.1893 9.936 71.9893 9.288 71.6373 8.856C71.3013 8.424 70.7893 8.208 70.1013 8.208C68.7733 8.208 68.0693 9.072 67.9893 10.8L67.9653 11.76L67.9893 12.72C68.0213 13.6 68.2053 14.256 68.5413 14.688C68.8933 15.104 69.4133 15.312 70.1013 15.312ZM85.2063 18C81.8943 18 80.2383 16.424 80.2383 13.272V8.664H78.3663C78.1903 8.664 78.0383 8.608 77.9103 8.496C77.7983 8.384 77.7423 8.24 77.7423 8.064V6.12C77.7423 5.944 77.7983 5.8 77.9103 5.688C78.0383 5.576 78.1903 5.52 78.3663 5.52H80.2383V1.56C80.2383 1.384 80.2943 1.24 80.4062 1.128C80.5343 1.016 80.6783 0.959999 80.8383 0.959999H83.6223C83.7983 0.959999 83.9423 1.016 84.0543 1.128C84.1663 1.24 84.2223 1.384 84.2223 1.56V5.52H87.2223C87.3983 5.52 87.5423 5.576 87.6543 5.688C87.7823 5.8 87.8463 5.944 87.8463 6.12V8.064C87.8463 8.24 87.7823 8.384 87.6543 8.496C87.5423 8.608 87.3983 8.664 87.2223 8.664H84.2223V12.936C84.2223 14.12 84.6783 14.712 85.5903 14.712H87.4383C87.6143 14.712 87.7583 14.768 87.8703 14.88C87.9823 14.992 88.0383 15.136 88.0383 15.312V17.4C88.0383 17.56 87.9823 17.704 87.8703 17.832C87.7583 17.944 87.6143 18 87.4383 18H85.2063ZM90.6014 3.72C90.4254 3.72 90.2814 3.664 90.1694 3.552C90.0574 3.44 90.0014 3.296 90.0014 3.12V0.959999C90.0014 0.783999 90.0574 0.639999 90.1694 0.527999C90.2814 0.415999 90.4254 0.36 90.6014 0.36H93.4814C93.6574 0.36 93.8014 0.415999 93.9134 0.527999C94.0254 0.639999 94.0814 0.783999 94.0814 0.959999V3.12C94.0814 3.296 94.0254 3.44 93.9134 3.552C93.8014 3.664 93.6574 3.72 93.4814 3.72H90.6014ZM90.6254 18C90.4494 18 90.3054 17.944 90.1934 17.832C90.0814 17.72 90.0254 17.576 90.0254 17.4V6.12C90.0254 5.944 90.0814 5.8 90.1934 5.688C90.3054 5.576 90.4494 5.52 90.6254 5.52H93.4574C93.6334 5.52 93.7774 5.576 93.8894 5.688C94.0014 5.8 94.0574 5.944 94.0574 6.12V17.4C94.0574 17.56 94.0014 17.704 93.8894 17.832C93.7774 17.944 93.6334 18 93.4574 18H90.6254ZM102.653 18.24C100.733 18.24 99.2206 17.72 98.1166 16.68C97.0126 15.64 96.4366 14.128 96.3886 12.144V11.304C96.4526 9.416 97.0366 7.944 98.1406 6.888C99.2606 5.816 100.757 5.28 102.629 5.28C103.989 5.28 105.133 5.56 106.061 6.12C107.005 6.664 107.709 7.416 108.173 8.376C108.653 9.336 108.893 10.44 108.893 11.688V12.264C108.893 12.424 108.837 12.568 108.725 12.696C108.613 12.808 108.469 12.864 108.293 12.864H100.613V13.032C100.645 13.784 100.829 14.392 101.165 14.856C101.501 15.32 101.989 15.552 102.629 15.552C103.029 15.552 103.357 15.472 103.613 15.312C103.869 15.136 104.101 14.928 104.309 14.688C104.453 14.512 104.565 14.408 104.645 14.376C104.741 14.328 104.885 14.304 105.077 14.304H108.053C108.197 14.304 108.317 14.352 108.413 14.448C108.525 14.528 108.581 14.64 108.581 14.784C108.581 15.2 108.341 15.68 107.861 16.224C107.397 16.768 106.717 17.24 105.821 17.64C104.925 18.04 103.869 18.24 102.653 18.24ZM104.669 10.488V10.44C104.669 9.656 104.485 9.04 104.117 8.592C103.765 8.128 103.269 7.896 102.629 7.896C102.005 7.896 101.509 8.128 101.141 8.592C100.789 9.04 100.613 9.656 100.613 10.44V10.488H104.669Z" fill="white"/>
<path opacity="0.6" d="M41.54 35C41.4467 35 41.3673 34.972 41.302 34.916C41.246 34.8507 41.218 34.7713 41.218 34.678V25.536C41.218 25.4333 41.246 25.354 41.302 25.298C41.3673 25.2327 41.4467 25.2 41.54 25.2H42.24C42.3893 25.2 42.5107 25.2747 42.604 25.424L45.558 31.08L48.54 25.424C48.5587 25.368 48.596 25.3167 48.652 25.27C48.7173 25.2233 48.7967 25.2 48.89 25.2H49.576C49.6787 25.2 49.758 25.2327 49.814 25.298C49.8793 25.354 49.912 25.4333 49.912 25.536V34.678C49.912 34.7713 49.8793 34.8507 49.814 34.916C49.7487 34.972 49.6693 35 49.576 35H48.89C48.7967 35 48.7173 34.972 48.652 34.916C48.596 34.8507 48.568 34.7713 48.568 34.678V27.79L46.23 32.354C46.1367 32.55 45.9873 32.648 45.782 32.648H45.348C45.1427 32.648 44.9933 32.55 44.9 32.354L42.548 27.79V34.678C42.548 34.7713 42.5153 34.8507 42.45 34.916C42.394 34.972 42.3193 35 42.226 35H41.54ZM54.1812 35.14C53.7239 35.14 53.2992 35.0467 52.9072 34.86C52.5152 34.6733 52.2026 34.4213 51.9692 34.104C51.7452 33.7773 51.6332 33.418 51.6332 33.026C51.6332 32.41 51.8852 31.906 52.3892 31.514C52.9026 31.1127 53.5932 30.8513 54.4612 30.73L56.5472 30.436V30.03C56.5472 29.078 56.0012 28.602 54.9092 28.602C54.4986 28.602 54.1626 28.6907 53.9012 28.868C53.6399 29.036 53.4439 29.2367 53.3132 29.47C53.2852 29.554 53.2479 29.6147 53.2012 29.652C53.1639 29.6893 53.1079 29.708 53.0332 29.708H52.4312C52.3472 29.708 52.2726 29.68 52.2072 29.624C52.1512 29.5587 52.1232 29.484 52.1232 29.4C52.1326 29.176 52.2352 28.924 52.4312 28.644C52.6366 28.3547 52.9492 28.1073 53.3692 27.902C53.7892 27.6873 54.3072 27.58 54.9232 27.58C55.9686 27.58 56.7199 27.8273 57.1772 28.322C57.6346 28.8073 57.8632 29.414 57.8632 30.142V34.678C57.8632 34.7713 57.8306 34.8507 57.7652 34.916C57.7092 34.972 57.6346 35 57.5412 35H56.8972C56.8039 35 56.7246 34.972 56.6592 34.916C56.6032 34.8507 56.5752 34.7713 56.5752 34.678V34.076C56.3699 34.3747 56.0712 34.6267 55.6792 34.832C55.2872 35.0373 54.7879 35.14 54.1812 35.14ZM54.4752 34.09C55.0819 34.09 55.5766 33.894 55.9592 33.502C56.3512 33.1007 56.5472 32.5267 56.5472 31.78V31.388L54.9232 31.626C54.2606 31.7193 53.7612 31.878 53.4252 32.102C53.0892 32.3167 52.9212 32.592 52.9212 32.928C52.9212 33.3013 53.0752 33.5907 53.3832 33.796C53.6912 33.992 54.0552 34.09 54.4752 34.09ZM60.1978 35C60.1045 35 60.0252 34.972 59.9598 34.916C59.9038 34.8507 59.8758 34.7713 59.8758 34.678V28.056C59.8758 27.9627 59.9038 27.8833 59.9598 27.818C60.0252 27.7527 60.1045 27.72 60.1978 27.72H60.8418C60.9352 27.72 61.0145 27.7527 61.0798 27.818C61.1452 27.8833 61.1778 27.9627 61.1778 28.056V28.672C61.5605 28.0373 62.2138 27.72 63.1378 27.72H63.6838C63.7772 27.72 63.8518 27.7527 63.9078 27.818C63.9732 27.874 64.0058 27.9487 64.0058 28.042V28.616C64.0058 28.7093 63.9732 28.784 63.9078 28.84C63.8518 28.896 63.7772 28.924 63.6838 28.924H62.8438C62.3398 28.924 61.9432 29.0733 61.6538 29.372C61.3645 29.6613 61.2198 30.058 61.2198 30.562V34.678C61.2198 34.7713 61.1872 34.8507 61.1218 34.916C61.0565 34.972 60.9772 35 60.8838 35H60.1978ZM65.5302 35C65.4369 35 65.3575 34.972 65.2922 34.916C65.2362 34.8507 65.2082 34.7713 65.2082 34.678V25.382C65.2082 25.2887 65.2362 25.214 65.2922 25.158C65.3575 25.0927 65.4369 25.06 65.5302 25.06H66.1882C66.2815 25.06 66.3562 25.0927 66.4122 25.158C66.4775 25.214 66.5102 25.2887 66.5102 25.382V30.254L69.2682 27.958C69.2962 27.9393 69.3429 27.902 69.4082 27.846C69.4735 27.7993 69.5342 27.7667 69.5902 27.748C69.6555 27.7293 69.7349 27.72 69.8282 27.72H70.5702C70.6542 27.72 70.7242 27.748 70.7802 27.804C70.8362 27.86 70.8642 27.93 70.8642 28.014C70.8642 28.1167 70.8082 28.2053 70.6962 28.28L67.4622 30.968L71.0462 34.454C71.1582 34.5473 71.2142 34.6313 71.2142 34.706C71.2142 34.79 71.1862 34.86 71.1302 34.916C71.0742 34.972 71.0042 35 70.9202 35H70.1922C70.0522 35 69.9495 34.986 69.8842 34.958C69.8282 34.93 69.7442 34.8647 69.6322 34.762L66.5102 31.78V34.678C66.5102 34.7713 66.4775 34.8507 66.4122 34.916C66.3562 34.972 66.2815 35 66.1882 35H65.5302ZM74.9832 35.14C74.0218 35.14 73.2518 34.846 72.6732 34.258C72.1038 33.6607 71.7912 32.8487 71.7352 31.822L71.7212 31.346L71.7352 30.884C71.8005 29.876 72.1178 29.0733 72.6872 28.476C73.2658 27.8787 74.0265 27.58 74.9692 27.58C76.0052 27.58 76.8078 27.9113 77.3772 28.574C77.9465 29.2273 78.2312 30.114 78.2312 31.234V31.472C78.2312 31.5653 78.1985 31.6447 78.1332 31.71C78.0772 31.766 78.0025 31.794 77.9092 31.794H73.0652V31.92C73.0932 32.5267 73.2752 33.0447 73.6112 33.474C73.9565 33.894 74.4092 34.104 74.9692 34.104C75.3985 34.104 75.7485 34.02 76.0192 33.852C76.2992 33.6747 76.5045 33.4927 76.6352 33.306C76.7192 33.194 76.7798 33.1287 76.8172 33.11C76.8638 33.082 76.9432 33.068 77.0552 33.068H77.7412C77.8252 33.068 77.8952 33.0913 77.9512 33.138C78.0072 33.1847 78.0352 33.25 78.0352 33.334C78.0352 33.5393 77.9045 33.7867 77.6432 34.076C77.3912 34.3653 77.0318 34.6173 76.5652 34.832C76.1078 35.0373 75.5805 35.14 74.9832 35.14ZM76.9012 30.828V30.786C76.9012 30.142 76.7238 29.6193 76.3692 29.218C76.0238 28.8073 75.5572 28.602 74.9692 28.602C74.3812 28.602 73.9145 28.8073 73.5692 29.218C73.2332 29.6193 73.0652 30.142 73.0652 30.786V30.828H76.9012ZM82.7061 35C81.2315 35 80.4941 34.1787 80.4941 32.536V28.84H79.4021C79.3088 28.84 79.2295 28.812 79.1641 28.756C79.1081 28.6907 79.0801 28.6113 79.0801 28.518V28.042C79.0801 27.9487 79.1081 27.874 79.1641 27.818C79.2295 27.7527 79.3088 27.72 79.4021 27.72H80.4941V25.382C80.4941 25.2887 80.5221 25.214 80.5781 25.158C80.6435 25.0927 80.7228 25.06 80.8161 25.06H81.4741C81.5675 25.06 81.6421 25.0927 81.6981 25.158C81.7635 25.214 81.7961 25.2887 81.7961 25.382V27.72H83.5321C83.6255 27.72 83.7001 27.7527 83.7561 27.818C83.8215 27.874 83.8541 27.9487 83.8541 28.042V28.518C83.8541 28.6113 83.8215 28.6907 83.7561 28.756C83.7001 28.812 83.6255 28.84 83.5321 28.84H81.7961V32.438C81.7961 32.9047 81.8755 33.2593 82.0341 33.502C82.1928 33.7353 82.4541 33.852 82.8181 33.852H83.6721C83.7655 33.852 83.8401 33.8847 83.8961 33.95C83.9615 34.006 83.9941 34.0807 83.9941 34.174V34.678C83.9941 34.7713 83.9615 34.8507 83.8961 34.916C83.8401 34.972 83.7655 35 83.6721 35H82.7061ZM85.6689 37.66C85.5755 37.66 85.4962 37.6273 85.4309 37.562C85.3749 37.506 85.3469 37.4313 85.3469 37.338V28.042C85.3469 27.9487 85.3749 27.874 85.4309 27.818C85.4962 27.7527 85.5755 27.72 85.6689 27.72H86.3129C86.4062 27.72 86.4809 27.7527 86.5369 27.818C86.6022 27.874 86.6349 27.9487 86.6349 28.042V28.658C87.1575 27.9393 87.9229 27.58 88.9309 27.58C89.9109 27.58 90.6435 27.888 91.1289 28.504C91.6235 29.12 91.8895 29.9133 91.9269 30.884C91.9362 30.9867 91.9409 31.1453 91.9409 31.36C91.9409 31.5747 91.9362 31.7333 91.9269 31.836C91.8895 32.7973 91.6235 33.5907 91.1289 34.216C90.6342 34.832 89.9015 35.14 88.9309 35.14C87.9602 35.14 87.2042 34.79 86.6629 34.09V37.338C86.6629 37.4313 86.6349 37.506 86.5789 37.562C86.5229 37.6273 86.4482 37.66 86.3549 37.66H85.6689ZM88.6369 34.006C89.2995 34.006 89.7802 33.8007 90.0789 33.39C90.3869 32.9793 90.5549 32.438 90.5829 31.766C90.5922 31.6727 90.5969 31.5373 90.5969 31.36C90.5969 29.596 89.9435 28.714 88.6369 28.714C87.9929 28.714 87.5075 28.9287 87.1809 29.358C86.8635 29.778 86.6909 30.282 86.6629 30.87L86.6489 31.402L86.6629 31.948C86.6815 32.4987 86.8589 32.9793 87.1949 33.39C87.5309 33.8007 88.0115 34.006 88.6369 34.006ZM94.0087 35C93.9154 35 93.8361 34.972 93.7707 34.916C93.7147 34.8507 93.6867 34.7713 93.6867 34.678V25.382C93.6867 25.2887 93.7147 25.214 93.7707 25.158C93.8361 25.0927 93.9154 25.06 94.0087 25.06H94.6667C94.7601 25.06 94.8347 25.0927 94.8907 25.158C94.9561 25.214 94.9887 25.2887 94.9887 25.382V34.678C94.9887 34.7713 94.9561 34.8507 94.8907 34.916C94.8347 34.972 94.7601 35 94.6667 35H94.0087ZM99.107 35.14C98.6497 35.14 98.225 35.0467 97.833 34.86C97.441 34.6733 97.1283 34.4213 96.895 34.104C96.671 33.7773 96.559 33.418 96.559 33.026C96.559 32.41 96.811 31.906 97.315 31.514C97.8283 31.1127 98.519 30.8513 99.387 30.73L101.473 30.436V30.03C101.473 29.078 100.927 28.602 99.835 28.602C99.4243 28.602 99.0883 28.6907 98.827 28.868C98.5657 29.036 98.3697 29.2367 98.239 29.47C98.211 29.554 98.1737 29.6147 98.127 29.652C98.0897 29.6893 98.0337 29.708 97.959 29.708H97.357C97.273 29.708 97.1983 29.68 97.133 29.624C97.077 29.5587 97.049 29.484 97.049 29.4C97.0583 29.176 97.161 28.924 97.357 28.644C97.5623 28.3547 97.875 28.1073 98.295 27.902C98.715 27.6873 99.233 27.58 99.849 27.58C100.894 27.58 101.646 27.8273 102.103 28.322C102.56 28.8073 102.789 29.414 102.789 30.142V34.678C102.789 34.7713 102.756 34.8507 102.691 34.916C102.635 34.972 102.56 35 102.467 35H101.823C101.73 35 101.65 34.972 101.585 34.916C101.529 34.8507 101.501 34.7713 101.501 34.678V34.076C101.296 34.3747 100.997 34.6267 100.605 34.832C100.213 35.0373 99.7137 35.14 99.107 35.14ZM99.401 34.09C100.008 34.09 100.502 33.894 100.885 33.502C101.277 33.1007 101.473 32.5267 101.473 31.78V31.388L99.849 31.626C99.1863 31.7193 98.687 31.878 98.351 32.102C98.015 32.3167 97.847 32.592 97.847 32.928C97.847 33.3013 98.001 33.5907 98.309 33.796C98.617 33.992 98.981 34.09 99.401 34.09ZM107.742 35.14C106.743 35.14 105.959 34.86 105.39 34.3C104.83 33.7307 104.531 32.9373 104.494 31.92L104.48 31.36L104.494 30.8C104.531 29.7827 104.83 28.994 105.39 28.434C105.959 27.8647 106.743 27.58 107.742 27.58C108.414 27.58 108.983 27.7013 109.45 27.944C109.916 28.1867 110.262 28.4853 110.486 28.84C110.719 29.1947 110.845 29.5493 110.864 29.904C110.873 29.9973 110.845 30.072 110.78 30.128C110.714 30.184 110.635 30.212 110.542 30.212H109.87C109.776 30.212 109.706 30.1933 109.66 30.156C109.613 30.1187 109.566 30.044 109.52 29.932C109.361 29.484 109.137 29.1667 108.848 28.98C108.558 28.784 108.194 28.686 107.756 28.686C107.177 28.686 106.715 28.868 106.37 29.232C106.034 29.5867 105.852 30.1327 105.824 30.87L105.81 31.374L105.824 31.85C105.852 32.5967 106.034 33.1473 106.37 33.502C106.706 33.8567 107.168 34.034 107.756 34.034C108.194 34.034 108.558 33.9407 108.848 33.754C109.137 33.558 109.361 33.236 109.52 32.788C109.566 32.676 109.613 32.6013 109.66 32.564C109.706 32.5173 109.776 32.494 109.87 32.494H110.542C110.635 32.494 110.714 32.5267 110.78 32.592C110.845 32.648 110.873 32.7227 110.864 32.816C110.845 33.1613 110.719 33.516 110.486 33.88C110.262 34.2347 109.916 34.5333 109.45 34.776C108.992 35.0187 108.423 35.14 107.742 35.14ZM115.438 35.14C114.477 35.14 113.707 34.846 113.128 34.258C112.559 33.6607 112.246 32.8487 112.19 31.822L112.176 31.346L112.19 30.884C112.256 29.876 112.573 29.0733 113.142 28.476C113.721 27.8787 114.482 27.58 115.424 27.58C116.46 27.58 117.263 27.9113 117.832 28.574C118.402 29.2273 118.686 30.114 118.686 31.234V31.472C118.686 31.5653 118.654 31.6447 118.588 31.71C118.532 31.766 118.458 31.794 118.364 31.794H113.52V31.92C113.548 32.5267 113.73 33.0447 114.066 33.474C114.412 33.894 114.864 34.104 115.424 34.104C115.854 34.104 116.204 34.02 116.474 33.852C116.754 33.6747 116.96 33.4927 117.09 33.306C117.174 33.194 117.235 33.1287 117.272 33.11C117.319 33.082 117.398 33.068 117.51 33.068H118.196C118.28 33.068 118.35 33.0913 118.406 33.138C118.462 33.1847 118.49 33.25 118.49 33.334C118.49 33.5393 118.36 33.7867 118.098 34.076C117.846 34.3653 117.487 34.6173 117.02 34.832C116.563 35.0373 116.036 35.14 115.438 35.14ZM117.356 30.828V30.786C117.356 30.142 117.179 29.6193 116.824 29.218C116.479 28.8073 116.012 28.602 115.424 28.602C114.836 28.602 114.37 28.8073 114.024 29.218C113.688 29.6193 113.52 30.142 113.52 30.786V30.828H117.356Z" fill="white"/>
</svg>
